HIERARCHY
ROOT Hips
{
	OFFSET 0.000000 0.000000 0.000000
	CHANNELS 6 Xposition Yposition Zposition Zrotation Xrotation Yrotation
	JOINT Spine
	{
		OFFSET 0.000000 -0.000357 2193.886963
		CHANNELS 6 Xposition Yposition Zposition Zrotation Xrotation Yrotation
		JOINT Spine1
		{
			OFFSET 0.000000 -0.000809 4964.319336
			CHANNELS 6 Xposition Yposition Zposition Zrotation Xrotation Yrotation
			JOINT Neck
			{
				OFFSET 0.000000 -0.000896 5499.413574
				CHANNELS 6 Xposition Yposition Zposition Zrotation Xrotation Yrotation
				JOINT Head
				{
					OFFSET 0.000000 -535.095032 4146.981934
					CHANNELS 6 Xposition Yposition Zposition Zrotation Xrotation Yrotation
					End Site
					{
						OFFSET 0.000000 -0.000858 5350.944336
					}
				}
			}
			JOINT LeftShoulder
			{
				OFFSET 1067.956787 116.709557 4487.140625
				CHANNELS 6 Xposition Yposition Zposition Zrotation Xrotation Yrotation
				JOINT LeftArm
				{
					OFFSET 3095.262939 0.000000 0.000000
					CHANNELS 6 Xposition Yposition Zposition Zrotation Xrotation Yrotation
					JOINT LeftForeArm
					{
						OFFSET 8026.858398 0.000000 0.000000
						CHANNELS 6 Xposition Yposition Zposition Zrotation Xrotation Yrotation
						JOINT LeftHand
						{
							OFFSET 7179.003418 0.000000 0.000000
							CHANNELS 6 Xposition Yposition Zposition Zrotation Xrotation Yrotation
							End Site
							{
								OFFSET 4013.208496 0.000000 0.000000
							}
						}
					}
				}
			}
			JOINT RightShoulder
			{
				OFFSET -1070.139282 116.709557 4487.140625
				CHANNELS 6 Xposition Yposition Zposition Zrotation Xrotation Yrotation
				JOINT RightArm
				{
					OFFSET -3095.262939 0.000000 0.000000
					CHANNELS 6 Xposition Yposition Zposition Zrotation Xrotation Yrotation
					JOINT RightForeArm
					{
						OFFSET -8026.858398 0.000000 0.000000
						CHANNELS 6 Xposition Yposition Zposition Zrotation Xrotation Yrotation
						JOINT RightHand
						{
							OFFSET -7179.003418 0.000000 0.000000
							CHANNELS 6 Xposition Yposition Zposition Zrotation Xrotation Yrotation
							End Site
							{
								OFFSET -4013.208496 0.000000 0.000000
							}
						}
					}
				}
			}
		}
	}
	JOINT LeftUpLeg
	{
		OFFSET 2675.471680 0.000000 0.000000
		CHANNELS 6 Xposition Yposition Zposition Zrotation Xrotation Yrotation
		JOINT LeftLeg
		{
			OFFSET 0.000000 0.002269 -13925.029297
			CHANNELS 6 Xposition Yposition Zposition Zrotation Xrotation Yrotation
			JOINT LeftFoot
			{
				OFFSET 0.000000 0.001822 -11186.351562
				CHANNELS 6 Xposition Yposition Zposition Zrotation Xrotation Yrotation
				JOINT LeftToeBase
				{
					OFFSET 0.000000 -4013.207275 -1739.057007
					CHANNELS 6 Xposition Yposition Zposition Zrotation Xrotation Yrotation
					End Site
					{
						OFFSET 0.000000 -1070.188721 0.000000
					}
				}
			}
		}
	}
	JOINT RightUpLeg
	{
		OFFSET -2675.471680 0.000000 0.000000
		CHANNELS 6 Xposition Yposition Zposition Zrotation Xrotation Yrotation
		JOINT RightLeg
		{
			OFFSET 0.000000 0.002269 -13925.029297
			CHANNELS 6 Xposition Yposition Zposition Zrotation Xrotation Yrotation
			JOINT RightFoot
			{
				OFFSET 0.000000 0.001822 -11186.351562
				CHANNELS 6 Xposition Yposition Zposition Zrotation Xrotation Yrotation
				JOINT RightToeBase
				{
					OFFSET 0.000000 -4013.207275 -1739.057007
					CHANNELS 6 Xposition Yposition Zposition Zrotation Xrotation Yrotation
					End Site
					{
						OFFSET 0.000000 -1070.188721 0.000000
					}
				}
			}
		}
	}
}
MOTION
Frames: 6
Frame Time: 0.041667
-913.960632 3590.520996 22960.578125 -0.656171 9.003614 -2.752367 0.000243 -0.000540 2193.887939 2.326502 -7.636764 -4.107577 -0.000068 -0.001285 4964.317871 0.856180 4.005362 -0.316786 0.000032 -0.000950 5499.414062 20.866597 11.997259 -22.764525 -0.002103 -535.095154 4146.986328 21.754451 13.804182 22.456412 1067.956543 116.709274 4487.139648 -10.579522 -2.056136 -2.811876 3095.264160 -0.000436 0.002929 -12.806377 23.457484 23.655226 8026.859375 0.001602 -0.001824 -6.859240 -12.593696 -17.383325 7179.004395 -0.000594 0.001824 0.494290 -13.785910 -38.874544 -1070.139160 116.709412 4487.142578 6.360640 -0.146136 9.125201 -3095.262451 -0.000231 0.001402 82.254356 54.587674 -52.407539 -8026.859375 -0.001656 0.001423 -117.565656 -215.763217 -136.502259 -7179.000488 0.000823 0.001717 179.953505 -190.006068 231.644964 2675.471924 0.000114 0.002060 -12.610192 -11.430871 -30.812971 0.000027 0.002640 -13925.028320 32.646641 24.070024 13.036781 -0.001125 0.002069 -11186.352539 19.369163 -3.689736 9.244501 -0.000568 -4013.207275 -1739.056885 0.000003 -0.000001 -0.000000 -2675.471680 0.000401 -0.000229 1.852533 -21.558140 34.379317 0.000812 0.002704 -13925.031250 -3.832108 34.506799 -30.736381 0.000891 0.002414 -11186.353516 -32.263966 -21.279487 -5.590946 -0.000223 -4013.208252 -1739.058960 -0.000000 0.000001 -0.000001 
-943.507568 3602.868408 22935.619141 -0.623078 9.060858 -2.865236 -0.000272 -0.000311 2193.884766 2.262511 -7.565392 -4.114703 0.000131 -0.000885 4964.319336 0.831053 3.942410 -0.225860 -0.000878 -0.000032 5499.415039 21.026188 12.007502 -22.842734 -0.000987 -535.095703 4146.981934 21.896082 13.877521 22.581968 1067.956299 116.710175 4487.142578 -10.778295 -2.208152 -2.907037 3095.264160 -0.000014 0.003830 -11.321748 21.592026 22.258277 8026.858398 0.000129 -0.001125 -5.541625 -9.682563 -13.127275 7179.005859 -0.001445 0.004424 1.141739 -10.698629 -38.083745 -1070.139893 116.710152 4487.140625 6.422694 -0.120937 9.135986 -3095.262695 0.000420 -0.002317 81.649229 54.875741 -51.953988 -8026.856445 -0.002446 0.001888 -117.030743 -215.730541 -137.097893 -7179.002930 0.000179 -0.002747 180.368084 -190.298127 231.395580 2675.471680 0.000343 -0.000114 -12.749062 -11.483612 -30.895193 -0.001119 0.002751 -13925.029297 32.719990 24.194497 13.138901 0.000248 0.001840 -11186.352539 19.373190 -3.688500 9.261920 -0.000754 -4013.206787 -1739.057007 0.000003 0.000000 0.000001 -2675.472168 0.000286 -0.001259 1.994910 -21.819147 34.649263 0.001484 0.003153 -13925.031250 -3.398957 34.913212 -31.223954 -0.000018 0.002862 -11186.354492 -32.430097 -21.440123 -5.653756 -0.000161 -4013.208252 -1739.057129 0.000001 0.000001 0.000001 
-981.239197 3607.294434 22908.507812 -0.510361 9.028060 -2.934104 0.000042 -0.001026 2193.885986 2.110869 -7.469625 -4.111639 -0.000015 -0.000656 4964.318848 0.778620 3.943711 -0.195318 0.000501 -0.000487 5499.416504 21.204179 12.032040 -22.943452 -0.000830 -535.095947 4146.981934 22.060138 13.898117 22.743432 1067.957397 116.710106 4487.142578 -10.968357 -2.314489 -3.054488 3095.264160 0.000157 0.004145 -9.485691 18.858367 20.724771 8026.859375 0.001409 -0.003813 -4.698951 -6.184183 -8.768395 7179.003906 -0.000300 0.005799 2.051166 -7.227002 -37.155126 -1070.138794 116.709885 4487.142578 6.539029 -0.137653 9.137541 -3095.262939 0.000262 -0.000651 81.012136 55.023809 -51.485136 -8026.858398 -0.001974 0.001745 -116.834539 -215.826027 -137.563548 -7179.004395 -0.000315 -0.000549 179.895722 -190.423502 231.682803 2675.472168 -0.000429 -0.000572 -12.946034 -11.438457 -31.041335 -0.001118 0.001719 -13925.028320 32.746785 24.327541 13.283996 -0.000669 0.001782 -11186.350586 19.393834 -3.698751 9.295718 -0.000282 -4013.207275 -1739.056885 0.000001 -0.000002 0.000001 -2675.471680 -0.000572 -0.000916 2.005690 -21.955155 34.836926 0.000546 0.002231 -13925.031250 -2.739059 35.231369 -31.785682 0.001360 0.002738 -11186.351562 -32.572216 -21.650414 -5.783445 0.000360 -4013.207275 -1739.057007 -0.000003 -0.000001 -0.000001 
-1017.815674 3613.892822 22881.179688 -0.414886 9.035168 -2.995658 -0.000002 -0.000654 2193.888672 1.953168 -7.367884 -4.096349 0.000136 -0.000885 4964.318848 0.724627 3.890763 -0.197267 0.000049 -0.000485 5499.413086 21.389905 12.048692 -23.061355 0.001574 -535.092957 4146.984375 22.229143 13.945453 22.923322 1067.956787 116.710175 4487.138184 -11.143199 -2.329756 -3.217462 3095.263916 -0.000129 0.001774 -8.655687 17.404983 19.871129 8026.858398 0.001316 0.002838 -3.499355 -3.746521 -5.294278 7179.003906 -0.000579 0.002638 2.510289 -4.718431 -35.873178 -1070.138794 116.710281 4487.137207 6.590137 -0.114213 9.169480 -3095.263916 0.000984 -0.001860 80.489715 55.162575 -51.029856 -8026.860352 0.001019 0.000615 -116.528710 -215.774910 -138.017988 -7179.003418 -0.000501 -0.002797 179.820344 -190.491394 231.706408 2675.471680 -0.000315 0.001144 -12.905732 -11.595334 -31.150331 0.001636 0.002636 -13925.028320 32.539096 24.506517 13.373094 -0.000439 0.001669 -11186.354492 19.372056 -3.711734 9.337512 -0.001279 -4013.206787 -1739.057007 -0.000000 -0.000001 0.000002 -2675.471436 -0.000286 0.002518 1.973275 -22.157984 34.994443 0.000753 0.002056 -13925.027344 -2.064569 35.435523 -32.483939 -0.000903 0.001798 -11186.355469 -33.095255 -21.905588 -5.671048 0.000546 -4013.207764 -1739.056885 0.000002 -0.000001 0.000000 
-1052.919189 3619.023682 22853.183594 -0.321077 9.017346 -3.088661 -0.000061 -0.000540 2193.889648 1.759928 -7.270725 -4.023641 -0.000121 -0.000885 4964.318848 0.659512 3.881027 -0.242538 0.000284 -0.000482 5499.413086 21.572041 12.085332 -23.130951 0.001202 -535.095459 4146.983887 22.396882 13.943008 23.077333 1067.956665 116.709763 4487.135742 -11.258275 -2.459334 -3.388145 3095.263916 0.000122 0.008465 -8.921696 17.795208 19.727246 8026.859375 -0.001416 -0.001665 -1.863524 -2.272707 -2.726102 7179.005371 -0.000229 0.005247 2.668186 -3.143429 -34.448414 -1070.139160 116.709358 4487.135254 6.731801 -0.126242 9.209358 -3095.262695 -0.000511 -0.000744 79.908712 55.330509 -50.607286 -8026.861328 -0.000468 0.000093 -115.895920 -215.573474 -138.623785 -7179.005371 0.001445 0.001895 180.439173 -190.641658 231.222285 2675.471436 -0.000544 0.002403 -13.078949 -11.568947 -31.262558 -0.001110 0.002634 -13925.028320 32.553211 24.631768 13.515906 -0.000211 0.001496 -11186.352539 19.397334 -3.734890 9.351138 -0.001273 -4013.207764 -1739.056885 -0.000003 -0.000001 -0.000001 -2675.471924 -0.000343 0.003319 2.030526 -22.316250 35.241724 0.001413 0.002510 -13925.032227 -1.218689 35.641051 -33.271467 0.000952 0.003035 -11186.352539 -33.579150 -22.088892 -5.733940 0.001538 -4013.207764 -1739.057129 0.000002 0.000001 -0.000000 
-1084.199463 3623.746582 22822.140625 -0.199858 9.034418 -3.185298 -0.000219 -0.000454 2193.886963 1.550695 -7.187619 -3.984863 0.000064 -0.001143 4964.318848 0.588232 3.825673 -0.246689 -0.000626 -0.001853 5499.412109 21.741686 12.129290 -23.269713 -0.003004 -535.096985 4146.982910 22.545507 13.971422 23.295622 1067.957153 116.709526 4487.142578 -11.348646 -2.589736 -3.636455 3095.263428 0.000172 0.006076 -9.729014 18.974467 20.181648 8026.860352 -0.000494 -0.002962 -0.168570 -1.067300 -0.923681 7179.003418 0.000713 0.003736 2.501659 -1.819237 -33.404700 -1070.139038 116.709404 4487.137695 6.860760 -0.125217 9.207185 -3095.263672 0.000204 -0.002940 79.630232 55.492989 -50.417847 -8026.858398 0.000429 0.002203 -116.008058 -215.562874 -138.666364 -7179.003906 0.000093 0.003129 180.291914 -190.653010 231.417683 2675.471680 0.000114 0.001945 -13.277171 -11.592764 -31.381769 0.000495 0.002861 -13925.026367 32.527222 24.778432 13.669439 0.001388 0.002296 -11186.351562 19.439077 -3.829547 9.350269 -0.000442 -4013.208252 -1739.057251 0.000000 0.000002 0.000001 -2675.471924 0.000000 0.001144 2.040559 -22.508397 35.501291 0.002303 0.002562 -13925.031250 -0.442284 35.856393 -34.039511 0.001200 0.001757 -11186.350586 -33.976496 -22.285003 -5.762804 -0.000383 -4013.206787 -1739.056763 0.000002 -0.000002 0.000001 
